#N canvas 287 141 1288 769 12;
#X obj 74 531 dac~ 1 2;
#X obj 74 352 osc~ 440;
#X obj 74 261 mtof;
#X floatatom 74 237 5 0 0 0 - - -;
#X floatatom 74 285 5 0 0 0 - - -;
#X msg 109 168 67;
#X msg 143 168 70;
#X msg 74 168 65;
#X msg 176 168 72;
#X msg 209 168 74;
#X obj 74 -9 tgl 15 0 empty empty empty 17 7 0 10 -262144 -1 -1 0 1
;
#X obj 74 18 metro 500;
#X obj 74 57 random 5;
#X obj 74 81 + 1;
#X obj 324 349 osc~ 440;
#X obj 324 261 mtof;
#X floatatom 324 237 5 0 0 0 - - -;
#X floatatom 324 285 5 0 0 0 - - -;
#X msg 360 166 67;
#X msg 394 166 70;
#X msg 324 166 65;
#X msg 428 166 72;
#X msg 463 166 74;
#X obj 324 18 metro 500;
#X obj 324 57 random 5;
#X obj 324 81 + 1;
#X obj 324 121 route 1 2 3 4 5;
#X obj 74 121 route 1 2 3 4 5;
#X obj 74 465 *~;
#X obj 126 450 tgl 15 0 empty empty empty 17 7 0 10 -262144 -1 -1 0
1;
#X text 527 86 Simple two voice random sequencer. Randomly chooses
a note from a predetermined chord. Converts the midi note of the chord
member to frequency in Hz \, and feeds that number into oscilators.
;
#X connect 1 0 28 0;
#X connect 2 0 4 0;
#X connect 3 0 2 0;
#X connect 4 0 1 0;
#X connect 5 0 3 0;
#X connect 6 0 3 0;
#X connect 7 0 3 0;
#X connect 8 0 3 0;
#X connect 9 0 3 0;
#X connect 10 0 23 0;
#X connect 10 0 11 0;
#X connect 11 0 12 0;
#X connect 12 0 13 0;
#X connect 13 0 27 0;
#X connect 14 0 28 0;
#X connect 15 0 17 0;
#X connect 16 0 15 0;
#X connect 17 0 14 0;
#X connect 18 0 16 0;
#X connect 19 0 16 0;
#X connect 20 0 16 0;
#X connect 21 0 16 0;
#X connect 22 0 16 0;
#X connect 23 0 24 0;
#X connect 24 0 25 0;
#X connect 25 0 26 0;
#X connect 26 0 20 0;
#X connect 26 1 18 0;
#X connect 26 2 19 0;
#X connect 26 3 21 0;
#X connect 26 4 22 0;
#X connect 27 0 7 0;
#X connect 27 1 5 0;
#X connect 27 2 6 0;
#X connect 27 3 8 0;
#X connect 27 4 9 0;
#X connect 28 0 0 0;
#X connect 28 0 0 1;
#X connect 29 0 28 1;
