#N canvas 189 231 886 673 12;
#X obj 170 82 osc~ 440;
#X obj 177 558 dac~;
#X obj 170 247 *~;
#X obj 188 194 line~;
#X obj 304 124 tabwrite~ osc-output;
#X obj 177 523 *~ 0.1;
#X obj 305 223 tabwrite~ line-output;
#X obj 305 283 tabwrite~ product;
#X text 220 559 <= out;
#X obj 440 27 tgl 15 0 empty empty empty 17 7 0 10 -262144 -1 -1 0
1;
#X floatatom 170 30 5 0 0 0 - - -;
#N canvas 0 50 450 250 (subpatch) 0;
#X array osc-output 100 float 0;
#X coords 0 -1 100 1 200 100 1 0 0;
#X restore 579 49 graph;
#N canvas 0 50 450 250 (subpatch) 0;
#X array line-output 100 float 0;
#X coords 0 1 100 0 200 100 1 0 0;
#X restore 579 187 graph;
#N canvas 0 50 450 250 (subpatch) 0;
#X array product 100 float 0;
#X coords 0 -1 100 1 200 100 1 0 0;
#X restore 579 325 graph;
#X msg 188 135 1 1000;
#X msg 194 157 0 1000;
#X obj 212 355 osc~;
#X floatatom 212 321 5 0 0 0 - - -;
#X obj 311 404 tabwrite~ frequencymod;
#N canvas 0 50 450 250 (subpatch) 0;
#X array frequencymod 100 float 0;
#X coords 0 -1 100 1 200 100 1 0 0;
#X restore 578 448 graph;
#X floatatom 494 21 5 0 0 0 - - -;
#X obj 170 375 *~;
#X obj 108 375 +~;
#N canvas 0 50 450 250 (subpatch) 0;
#X array frequencyadd 100 float 0;
#X coords 0 -1 100 1 200 100 1 0 0;
#X restore 577 568 graph;
#X obj 313 465 tabwrite~ frequencyadd;
#X obj 108 399 *~ 0.1;
#X obj 440 57 metro 88.51;
#X connect 0 0 2 0;
#X connect 0 0 4 0;
#X connect 2 0 7 0;
#X connect 2 0 21 0;
#X connect 2 0 22 0;
#X connect 3 0 2 1;
#X connect 3 0 6 0;
#X connect 5 0 1 0;
#X connect 5 0 1 1;
#X connect 9 0 26 0;
#X connect 10 0 0 0;
#X connect 14 0 3 0;
#X connect 15 0 3 0;
#X connect 16 0 21 1;
#X connect 16 0 22 1;
#X connect 17 0 16 0;
#X connect 20 0 26 1;
#X connect 21 0 18 0;
#X connect 22 0 25 0;
#X connect 25 0 24 0;
#X connect 26 0 6 0;
#X connect 26 0 7 0;
#X connect 26 0 4 0;
#X connect 26 0 18 0;
#X connect 26 0 24 0;
