#N canvas 126 300 1087 547 12;
#X obj 163 300 tabwrite~ osc-output;
#X obj 163 234 tgl 15 0 empty empty empty 17 7 0 10 -262144 -1 -1 0
1;
#N canvas 0 50 450 250 (subpatch) 0;
#X array osc-output 1000 float 2;
#X coords 0 -1 1000 1 200 100 1 0 0;
#X restore 68 361 graph;
#X obj 163 264 metro 50;
#X floatatom 216 231 5 0 0 0 - - -;
#X obj 68 299 dac~ 1 2;
#X obj 68 223 *~;
#X obj 164 204 / 100;
#X obj 164 95 vsl 15 100 0 100 0 0 empty empty empty 0 -9 0 10 -262144
-1 -1 0 1;
#X obj 1332 179 *~;
#X floatatom 1332 94 0 0 0 0 - - -;
#X floatatom 1262 139 0 0 0 0 - - -;
#X obj 1262 209 +~;
#X floatatom 1350 149 0 0 0 0 - - -;
#X text 1237 96 carrier;
#X text 1236 114 frequency;
#X text 1317 70 frequency;
#X text 1318 53 modulation;
#X text 1170 171 add modulator;
#X text 1169 189 to carrier;
#X text 1389 161 index;
#X text 1391 142 modulation;
#X obj 1332 119 osc~;
#X text 1167 208 frequency =>;
#X obj 68 100 osc~ 50;
#X floatatom 68 55 5 0 0 0 - - -;
#X text 280 403 change range to 1000;
#X text 1261 276 goes into osc~;
#X obj 534 301 tabwrite~ osc-output;
#X obj 534 235 tgl 15 0 empty empty empty 17 7 0 10 -262144 -1 -1 1
1;
#X obj 534 265 metro 50;
#X floatatom 587 232 5 0 0 0 - - -;
#X obj 439 300 dac~ 1 2;
#X obj 439 224 *~;
#X obj 535 205 / 100;
#X obj 535 96 vsl 15 100 0 100 0 0 empty empty empty 0 -9 0 10 -262144
-1 -1 0 1;
#X obj 486 56 osc~ 50;
#X floatatom 486 18 5 0 0 0 - - -;
#X obj 438 56 osc~;
#X obj 439 112 *~;
#X floatatom 438 20 5 0 0 0 - - -;
#X obj 367 114 +~;
#X floatatom 816 37 0 0 0 0 - - -;
#X obj 816 63 mtof;
#X obj 774 129 osc~;
#X obj 816 105 * 2;
#X obj 816 129 osc~;
#X obj 880 129 osc~;
#X obj 880 105 * 3;
#X obj 944 129 osc~;
#X obj 944 105 * 4;
#X obj 880 154 *~ 0.2;
#X obj 775 264 +~;
#X obj 816 234 *~;
#X obj 851 235 tgl 15 0 empty empty empty 0 -6 0 8 -262144 -1 -1 1
1;
#X obj 816 185 +~;
#X obj 816 209 +~;
#X text 851 208 add the three overtones together;
#X obj 775 298 tabwrite~ tab.01.07;
#X obj 816 154 *~ 0.1;
#X obj 944 154 *~ 0.5;
#X text 871 234 <= overtones ON/OFF;
#X text 851 40 <= choose a pitch;
#N canvas 0 0 450 300 (subpatch) 0;
#X array tab.01.07 882 float 0;
#X coords 0 1.02 881 -1.02 200 130 1;
#X restore 764 393 graph;
#X text 793 6 A07 Fusion;
#X text 1169 3 A09 Frequency Mod;
#X obj 4 100 phasor~;
#X connect 1 0 3 0;
#X connect 3 0 0 0;
#X connect 4 0 3 1;
#X connect 6 0 5 0;
#X connect 6 0 5 1;
#X connect 7 0 6 1;
#X connect 8 0 7 0;
#X connect 9 0 12 1;
#X connect 10 0 22 0;
#X connect 11 0 12 0;
#X connect 13 0 9 1;
#X connect 22 0 9 0;
#X connect 24 0 6 0;
#X connect 24 0 0 0;
#X connect 25 0 24 0;
#X connect 29 0 30 0;
#X connect 30 0 28 0;
#X connect 30 0 58 0;
#X connect 31 0 30 1;
#X connect 33 0 32 0;
#X connect 33 0 32 1;
#X connect 33 0 28 0;
#X connect 34 0 33 1;
#X connect 35 0 34 0;
#X connect 36 0 39 1;
#X connect 36 0 41 1;
#X connect 37 0 36 0;
#X connect 38 0 39 0;
#X connect 38 0 41 0;
#X connect 39 0 33 0;
#X connect 40 0 38 0;
#X connect 42 0 43 0;
#X connect 43 0 44 0;
#X connect 43 0 45 0;
#X connect 43 0 48 0;
#X connect 43 0 50 0;
#X connect 44 0 52 0;
#X connect 45 0 46 0;
#X connect 46 0 59 0;
#X connect 47 0 51 0;
#X connect 48 0 47 0;
#X connect 49 0 60 0;
#X connect 50 0 49 0;
#X connect 51 0 55 1;
#X connect 52 0 58 0;
#X connect 53 0 52 1;
#X connect 54 0 53 1;
#X connect 55 0 56 0;
#X connect 56 0 53 0;
#X connect 59 0 55 0;
#X connect 60 0 56 1;
