#N canvas 143 166 1045 588 12;
#X obj 371 126 osc~;
#X floatatom 371 70 5 0 0 0 - - -;
#X obj 49 286 dac~ 1 2;
#X obj 49 243 *~;
#X obj 145 224 / 100;
#X obj 145 115 vsl 15 100 0 100 0 0 empty empty empty 0 -9 0 10 -262144
-1 -1 0 1;
#X obj 373 292 dac~ 1 2;
#X obj 373 249 *~;
#X obj 469 230 / 100;
#X obj 469 121 vsl 15 100 0 100 0 0 empty empty empty 0 -9 0 10 -262144
-1 -1 0 1;
#X obj 828 321 tabwrite~ osc-output;
#X obj 828 255 tgl 15 0 empty empty empty 17 7 0 10 -262144 -1 -1 1
1;
#N canvas 0 50 450 250 (subpatch) 0;
#X array osc-output 100 float 0;
#X coords 0 -1 100 1 200 100 1 0 0;
#X restore 733 382 graph;
#X obj 828 285 metro 50;
#X floatatom 881 252 5 0 0 0 - - -;
#X obj 733 121 osc~;
#X floatatom 733 65 5 0 0 0 - - -;
#X obj 733 320 dac~ 1 2;
#X obj 733 244 *~;
#X obj 829 225 / 100;
#X obj 829 116 vsl 15 100 0 100 0 0 empty empty empty 0 -9 0 10 -262144
-1 -1 0 1;
#X connect 0 0 7 0;
#X connect 1 0 0 0;
#X connect 3 0 2 0;
#X connect 3 0 2 1;
#X connect 4 0 3 1;
#X connect 5 0 4 0;
#X connect 7 0 6 0;
#X connect 7 0 6 1;
#X connect 8 0 7 1;
#X connect 9 0 8 0;
#X connect 11 0 13 0;
#X connect 13 0 10 0;
#X connect 14 0 13 1;
#X connect 15 0 18 0;
#X connect 15 0 10 0;
#X connect 16 0 15 0;
#X connect 18 0 17 0;
#X connect 18 0 17 1;
#X connect 19 0 18 1;
#X connect 20 0 19 0;
