#N canvas 149 124 1216 602 12;
#X obj 85 351 t b f;
#X obj 85 401 print;
#X floatatom 85 314 5 0 0 0 - - -;
#X floatatom 222 313 5 0 0 0 - - -;
#X obj 249 416 print;
#X obj 223 348 t b f b f b b;
#X floatatom 83 451 5 0 0 0 - - -;
#X obj 110 554 print;
#X obj 84 486 t b f b f b b;
#X obj 181 553 pack 0 0 0;
#X msg 180 609 set \$1 \$2 \$3;
#X obj 215 516 + 1;
#X obj 261 516 + 2;
#X msg 180 651 7 8 9;
#X floatatom 727 327 5 0 0 0 - - -;
#X obj 728 362 t b f b f b b;
#X obj 825 429 pack 0 0 0;
#X msg 824 485 set \$1 \$2 \$3;
#X obj 859 392 + 1;
#X obj 905 392 + 2;
#X msg 824 527 11 12 13;
#X obj 823 582 unpack 0 0 0;
#X obj 829 657 pack 0 0 0;
#X obj 829 681 print;
#X floatatom 967 317 5 0 0 0 - - -;
#X obj 968 352 t b f b f b b;
#X obj 1065 419 pack 0 0 0;
#X msg 1064 475 set \$1 \$2 \$3;
#X obj 1099 382 + 1;
#X obj 1145 382 + 2;
#X msg 1064 517 10 11 12;
#X obj 1063 572 unpack 0 0 0;
#X obj 1069 647 pack 0 0 0;
#X obj 1069 671 print;
#X obj 1030 614 pipe 5;
#X obj 790 643 f;
#X obj 775 614 del 5;
#X floatatom 487 327 5 0 0 0 - - -;
#X obj 488 362 t b f b f b b;
#X obj 585 429 pack 0 0 0;
#X msg 584 485 set \$1 \$2 \$3;
#X obj 619 392 + 1;
#X obj 665 392 + 2;
#X msg 584 527 6 7 8;
#X obj 583 582 unpack 0 0 0;
#X obj 589 657 pack 0 0 0;
#X obj 589 681 print;
#X text 74 273 2). Pure data objects follow a right to left mechanism
when performing computations;
#X msg 100 -27 1;
#X obj 171 33 + 1;
#X obj 314 122 print x1;
#X obj 242 64 print x2;
#X obj 314 32 + 1;
#X obj 314 64 + 1;
#X obj 314 93 + 1;
#X text 136 -27 <= click here;
#X obj 100 2 trigger float float float float;
#X obj 171 64 print x3;
#X obj 100 64 print x4;
#X text 74 157 ... you get "x1" first \, notwithstanding the fact that
"x2" \, "x3" and "x4" appear to be closer to the source., f 48;
#X text 72 -77 1). In Pd \, message passing is depth first \, so that
in this patch:, f 46;
#X connect 0 0 1 0;
#X connect 0 1 1 0;
#X connect 2 0 0 0;
#X connect 3 0 5 0;
#X connect 5 0 4 0;
#X connect 5 1 4 0;
#X connect 5 2 4 0;
#X connect 5 3 4 0;
#X connect 5 4 4 0;
#X connect 5 5 4 0;
#X connect 6 0 8 0;
#X connect 6 0 9 0;
#X connect 8 0 7 0;
#X connect 8 1 7 0;
#X connect 8 1 11 0;
#X connect 8 2 7 0;
#X connect 8 3 7 0;
#X connect 8 3 12 0;
#X connect 8 4 7 0;
#X connect 8 5 7 0;
#X connect 9 0 10 0;
#X connect 10 0 13 0;
#X connect 11 0 9 1;
#X connect 12 0 9 2;
#X connect 14 0 15 0;
#X connect 14 0 16 0;
#X connect 15 1 18 0;
#X connect 15 3 19 0;
#X connect 16 0 17 0;
#X connect 17 0 20 0;
#X connect 18 0 16 1;
#X connect 19 0 16 2;
#X connect 20 0 21 0;
#X connect 21 0 22 2;
#X connect 21 1 22 1;
#X connect 21 2 35 1;
#X connect 21 2 36 0;
#X connect 22 0 23 0;
#X connect 24 0 25 0;
#X connect 24 0 26 0;
#X connect 25 1 28 0;
#X connect 25 3 29 0;
#X connect 26 0 27 0;
#X connect 27 0 30 0;
#X connect 28 0 26 1;
#X connect 29 0 26 2;
#X connect 30 0 31 0;
#X connect 31 0 32 2;
#X connect 31 1 32 1;
#X connect 31 2 34 0;
#X connect 32 0 33 0;
#X connect 34 0 32 0;
#X connect 35 0 22 0;
#X connect 36 0 35 0;
#X connect 37 0 38 0;
#X connect 37 0 39 0;
#X connect 38 1 41 0;
#X connect 38 3 42 0;
#X connect 39 0 40 0;
#X connect 40 0 43 0;
#X connect 41 0 39 1;
#X connect 42 0 39 2;
#X connect 43 0 44 0;
#X connect 44 0 45 2;
#X connect 44 1 45 1;
#X connect 44 2 45 0;
#X connect 45 0 46 0;
#X connect 48 0 56 0;
#X connect 49 0 57 0;
#X connect 52 0 53 0;
#X connect 53 0 54 0;
#X connect 54 0 50 0;
#X connect 56 0 58 0;
#X connect 56 1 49 0;
#X connect 56 2 51 0;
#X connect 56 3 52 0;
