#N canvas 401 126 932 656 12;
#N canvas 0 23 450 278 (subpatch) 0;
#X array array1 9 float 3;
#A 0 1 4 7 3 6 6 7 3 1;
#X coords 0 8 9 1 200 140 1 0 0;
#X restore 606 239 graph;
#X msg 142 441 set;
#X msg 175 441 addsemi;
#X obj 235 441 pack 0 0 0 0 0 0 0 0, f 27;
#X floatatom 221 328 5 0 0 0 - - -;
#X floatatom 261 328 5 0 0 0 - - -;
#X floatatom 300 328 5 0 0 0 - - -;
#X floatatom 340 328 5 0 0 0 - - -;
#X floatatom 379 328 5 0 0 0 - - -;
#X floatatom 419 328 5 0 0 0 - - -;
#X floatatom 458 328 5 0 0 0 - - -;
#X floatatom 498 328 5 0 0 0 - - -;
#X obj 185 255 unpack 0 0 0 0 0 0 0 0;
#X obj 30 67 t b b b b b b b b;
#X obj 185 202 pack 0 0 0 0 0 0 0 0;
#X obj 30 42 bng 15 250 50 0 empty empty empty 17 7 0 10 -262144 -1
-1;
#X msg 107 527 \; array1 5 6 7 3 1 4 2 7 \;;
#X msg 235 470 add array1 \$1 \$2 \$3 \$4 \$5 \$6 \$7 \$8;
#X obj 70 363 t b f b b, f 13;
#X obj 187 148 f;
#X obj 217 148 f;
#X obj 247 148 f;
#X obj 277 148 f;
#X obj 307 148 f;
#X obj 337 148 f;
#X obj 367 148 f;
#X obj 397 148 f;
#X floatatom 213 22 5 0 0 0 - - -;
#X floatatom 256 22 5 0 0 0 - - -;
#X floatatom 299 22 5 0 0 0 - - -;
#X floatatom 342 22 5 0 0 0 - - -;
#X floatatom 386 22 5 0 0 0 - - -;
#X floatatom 429 22 5 0 0 0 - - -;
#X floatatom 472 22 5 0 0 0 - - -;
#X floatatom 515 22 5 0 0 0 - - -;
#X text 561 22 Set probabilities here;
#X connect 1 0 16 0;
#X connect 2 0 16 0;
#X connect 3 0 17 0;
#X connect 4 0 18 0;
#X connect 5 0 3 1;
#X connect 6 0 3 2;
#X connect 7 0 3 3;
#X connect 8 0 3 4;
#X connect 9 0 3 5;
#X connect 10 0 3 6;
#X connect 11 0 3 7;
#X connect 12 0 4 0;
#X connect 12 1 5 0;
#X connect 12 2 6 0;
#X connect 12 3 7 0;
#X connect 12 4 8 0;
#X connect 12 5 9 0;
#X connect 12 6 10 0;
#X connect 12 7 11 0;
#X connect 13 0 19 0;
#X connect 13 1 20 0;
#X connect 13 2 21 0;
#X connect 13 3 22 0;
#X connect 13 4 23 0;
#X connect 13 5 24 0;
#X connect 13 6 25 0;
#X connect 13 7 26 0;
#X connect 14 0 12 0;
#X connect 15 0 13 0;
#X connect 17 0 16 0;
#X connect 18 0 16 0;
#X connect 18 1 3 0;
#X connect 18 2 2 0;
#X connect 18 3 1 0;
#X connect 19 0 14 0;
#X connect 20 0 14 1;
#X connect 21 0 14 2;
#X connect 22 0 14 3;
#X connect 23 0 14 4;
#X connect 24 0 14 5;
#X connect 25 0 14 6;
#X connect 26 0 14 7;
#X connect 27 0 19 1;
#X connect 28 0 20 1;
#X connect 29 0 21 1;
#X connect 30 0 22 1;
#X connect 31 0 23 1;
#X connect 32 0 24 1;
#X connect 33 0 25 1;
#X connect 34 0 26 1;
