#N canvas 72 379 977 509 12;
#X obj 325 83 osc~;
#X text 376 85 oscillator;
#X text 375 51 frequency (pitch);
#X floatatom 325 48 5 0 0 0 - - -;
#X obj 324 218 *~;
#X floatatom 366 175 5 0 0 0 - - -;
#X text 413 177 volume;
#X obj 366 199 / 100;
#X obj 203 326 snapshot~;
#X obj 203 302 bng 15 250 50 0 empty empty empty 17 7 0 10 -262144
-1 -1;
#X obj 203 131 tgl 15 0 empty empty empty 17 7 0 10 -262144 -1 -1 0
1;
#N canvas 0 50 450 250 (subpatch) 0;
#X array message-output 100 float 0;
#X coords 0 -1 100 1 200 100 1 0 0;
#X restore 639 373 graph;
#X floatatom 257 127 5 0 0 0 - - -;
#X obj 203 161 metro 88.51;
#X floatatom 359 349 0 0 0 0 - - -;
#X obj 359 324 + 1;
#X obj 305 324 float;
#X msg 359 397 0;
#X obj 305 300 bng 15 250 50 0 empty empty empty 17 7 0 10 -262144
-1 -1;
#X obj 359 372 sel 100;
#X obj 202 451 tabwrite message-output;
#X obj 324 263 tabwrite~ osc-output;
#N canvas 0 50 450 250 (subpatch) 0;
#X array osc-output 100 float 0;
#X coords 0 -1 100 1 200 100 1 0 0;
#X restore 635 215 graph;
#X text -63 -34 convert from number to sound 1 Select Frequency 2 turn
on metronome 3 Turn up colume 4 View output as signal(~) and number
(float);
#X text 290 46 1;
#X text 167 129 2;
#X text 340 175 3;
#X obj 203 266 t b b;
#X connect 0 0 4 0;
#X connect 3 0 0 0;
#X connect 4 0 8 0;
#X connect 4 0 21 0;
#X connect 5 0 7 0;
#X connect 7 0 4 1;
#X connect 8 0 20 0;
#X connect 9 0 8 0;
#X connect 10 0 13 0;
#X connect 12 0 13 1;
#X connect 13 0 21 0;
#X connect 13 0 27 0;
#X connect 14 0 19 0;
#X connect 14 0 20 1;
#X connect 15 0 16 1;
#X connect 15 0 14 0;
#X connect 16 0 15 0;
#X connect 17 0 15 0;
#X connect 18 0 16 0;
#X connect 19 0 17 0;
#X connect 27 0 9 0;
#X connect 27 1 18 0;
