#N canvas 727 527 944 543 12;
#X obj 89 232 *~;
#X msg 252 47 1;
#X floatatom 332 121 5 0 1000 0 - - -;
#X obj 314 218 / 2;
#X floatatom 314 243 5 0 0 0 - - -;
#X obj 418 213 del 5;
#X obj 418 243 f;
#X obj 418 181 t b f;
#X obj 88 86 osc~ 220;
#X obj 90 333 dac~;
#X obj 89 274 *~ 0.1;
#X obj 33 312 env~;
#X floatatom 33 336 5 0 0 0 - - -;
#X floatatom 88 49 5 0 0 0 - - -;
#X text 287 47 attack;
#X obj 332 168 + 1;
#X obj 332 144 / 1000;
#X obj 252 172 t f f;
#X obj 210 264 line;
#X obj 210 238 pack 0 10;
#X text 382 117 decay rate (try between 1<x<50);
#X obj 252 124 line;
#X obj 252 95 pack 0 10;
#X text 85 392 Need to fix attack to prevent clipping on jump to 1
for reattack.;
#X connect 0 0 10 0;
#X connect 0 0 11 0;
#X connect 1 0 22 0;
#X connect 2 0 16 0;
#X connect 3 0 4 0;
#X connect 4 0 7 0;
#X connect 5 0 6 0;
#X connect 6 0 17 0;
#X connect 7 0 5 0;
#X connect 7 1 6 1;
#X connect 8 0 0 0;
#X connect 10 0 9 0;
#X connect 10 0 9 1;
#X connect 11 0 12 0;
#X connect 13 0 8 0;
#X connect 15 0 3 1;
#X connect 16 0 15 0;
#X connect 17 0 3 0;
#X connect 17 1 19 0;
#X connect 18 0 0 1;
#X connect 19 0 18 0;
#X connect 21 0 17 0;
#X connect 22 0 21 0;
