#N canvas 641 357 888 487 12;
#X obj 248 171 tabosc4~ wave;
#N canvas 0 22 450 278 (subpatch) 0;
#X array wave 259 float 2;
#X coords 0 1 259 -1 200 140 1 0 0;
#X restore 526 155 graph;
#X floatatom 248 83 5 0 0 0 - - -;
#X obj 248 113 sig~;
#X obj 248 370 dac~;
#X obj 248 301 *~;
#X floatatom 290 258 5 0 0 0 - - -;
#X text 337 260 volume;
#X obj 290 282 / 100;
#X text 294 369 convert number to sound;
#X text 299 109 pitch;
#X text 361 173 read through table back and forth (oscillate);
#X connect 0 0 5 0;
#X connect 2 0 3 0;
#X connect 3 0 0 0;
#X connect 5 0 4 0;
#X connect 5 0 4 1;
#X connect 6 0 8 0;
#X connect 8 0 5 1;
