#N canvas 231 337 1090 476 12;
#X obj 181 188 soundfiler;
#N canvas 0 22 450 300 (subpatch) 0;
#X array array3 96000 float 0;
#X coords 0 1 95999 -1 300 100 1 0 0;
#X restore 76 332 graph;
#X msg 70 54 read -resize -maxsize 20000 /Users/stevenleffue/Documents/Pd/samples/buzz.wav
array3;
#X msg 70 92 read -resize /Users/stevenleffue/Documents/Pd/samples/buzz.wav
array3;
#X msg 76 278 write -wave -nframes 10000 /tmp/foo2 array2;
#X obj 735 355 hip~ 5;
#X floatatom 735 166 0 0 0 0 - - -;
#X text 861 327 read from the table;
#X floatatom 760 219 0 0 0 0 - - -;
#X obj 735 272 *~ 0;
#X obj 735 299 +~ 1;
#X obj 735 192 phasor~ 0;
#X text 805 220 <= chunk size (100ths of a second);
#X text 784 166 <= frequency (Hz.);
#X text 781 271 <= readjust phase for range 0 - (chunk size);
#X text 780 299 <= add one to avoid beginning of table;
#X obj 708 395 dac~;
#X obj 735 328 tabread4~ array3;
#X obj 248 211 print;
#X obj 760 245 * 480;
#X obj 735 116 random 10;
#X obj 735 140 + 1;
#X obj 735 91 metro;
#X obj 735 69 tgl 15 0 empty empty empty 17 7 0 10 -262144 -1 -1 0
1;
#X floatatom 767 66 5 0 0 0 - - -;
#X connect 0 1 18 0;
#X connect 2 0 0 0;
#X connect 3 0 0 0;
#X connect 4 0 0 0;
#X connect 5 0 16 0;
#X connect 5 0 16 1;
#X connect 6 0 11 0;
#X connect 8 0 19 0;
#X connect 9 0 10 0;
#X connect 10 0 17 0;
#X connect 11 0 9 0;
#X connect 17 0 5 0;
#X connect 19 0 9 1;
#X connect 20 0 21 0;
#X connect 21 0 6 0;
#X connect 22 0 20 0;
#X connect 23 0 22 0;
#X connect 24 0 22 1;
