#N canvas 0 25 1439 459 12;
#X obj 459 23 tgl 15 0 empty empty empty 17 7 0 10 -262144 -1 -1 0
1;
#X obj 459 47 metro 1000;
#X obj 459 74 bng 30 250 50 0 empty empty empty 17 7 0 10 -4034 -1
-1;
#X obj 459 113 tgl 15 0 empty empty empty 17 7 0 10 -262144 -1 -1 0
1;
#X obj 459 136 sel 1;
#X msg 491 164 set welcome\ to;
#X msg 459 188 set stevenleffue.com;
#X obj 459 210 s hi;
#X symbolatom 513 81 20 0 0 0 - hi -;
#X connect 0 0 1 0;
#X connect 1 0 2 0;
#X connect 2 0 3 0;
#X connect 3 0 4 0;
#X connect 4 0 6 0;
#X connect 4 1 5 0;
#X connect 5 0 7 0;
#X connect 6 0 7 0;
